# xmcd CD database file
#
# Track frame offsets:
#	150
#	24950
#	42218
#	57451
#	76122
#	94331
#	111286
#	138016
#	159123
#	181817
#	203681
#	216448
#	236715
#
# Disc length: 3466 seconds
#
# Revision: 1
# Processed by: cddbd v1.5.2PL0 Copyright (c) Steve Scherf et al.
# Submitted via: CDex 1.51
#
DISCID=a30d880d
DTITLE=Stacey Kent - Breakfast in the morning tram
DYEAR=2007
DGENRE=Jazz
TTITLE0=The Ice Hotel
TTITLE1=Landslide
TTITLE2=Ces petits riens
TTITLE3=I wish I could go travelling again
TTITLE4=So many stars
TTITLE5=Samba Saravah
TTITLE6=Breakfast on the morning tram
TTITLE7=Never let me go
TTITLE8=So romantic
TTITLE9=Hard Hearted Hannah
TTITLE10=La saison des pluies
TTITLE11=What a wonderful world
TTITLE12=The Ice Hotel (Live)
EXTD=YEAR: 2007
EXTT0=
EXTT1=
EXTT2=
EXTT3=
EXTT4=
EXTT5=
EXTT6=
EXTT7=
EXTT8=
EXTT9=
EXTT10=
EXTT11=
EXTT12=
PLAYORDER=
